<svg width="616" height="616" viewBox="0 0 616 616" fill="none" xmlns="http://www.w3.org/2000/svg">
<path fill-rule="evenodd" clip-rule="evenodd" d="M308 616C478.104 616 616 478.104 616 308C616 137.896 478.104 0 308 0C137.896 0 0 137.896 0 308C0 478.104 137.896 616 308 616ZM308.5 583C460.102 583 583 460.102 583 308.5C583 156.898 460.102 34 308.5 34C156.898 34 34 156.898 34 308.5C34 460.102 156.898 583 308.5 583Z" fill="#D9D9D9"/>
<path fill-rule="evenodd" clip-rule="evenodd" d="M368.843 224.256L308 37L247.157 224.256H50.2637L209.553 339.987L148.71 527.244L308 411.513L467.29 527.244L406.447 339.987L565.736 224.256H368.843ZM360.312 235.999L308 75L255.688 235.999H86.4038L223.358 335.502L171.046 496.501L308 396.998L444.954 496.501L392.642 335.502L529.596 235.999H360.312Z" fill="#D9D9D9"/>
<path fill-rule="evenodd" clip-rule="evenodd" d="M351.902 249.545L308.185 115L264.469 249.545H123L237.451 332.699L193.735 467.244L308.185 384.09L422.636 467.244L378.92 332.699L493.371 249.545H351.902ZM345.772 257.982L308.185 142.303L270.599 257.982H148.967L247.369 329.476L209.783 445.155L308.185 373.661L406.588 445.155L369.001 329.476L467.404 257.982H345.772Z" fill="#D9D9D9"/>
<path fill-rule="evenodd" clip-rule="evenodd" d="M336.621 270.945L308.046 183L279.471 270.945H187L261.811 325.298L233.236 413.244L308.046 358.89L382.857 413.244L354.282 325.298L429.092 270.945H336.621ZM332.615 276.46L308.046 200.847L283.478 276.46H203.973L268.294 323.192L243.726 398.805L308.046 352.074L372.367 398.805L347.799 323.192L412.119 276.46H332.615Z" fill="#D9D9D9"/>
<path fill-rule="evenodd" clip-rule="evenodd" d="M327.976 283.94L308.5 224L289.024 283.94H226L276.988 320.985L257.512 380.924L308.5 343.88L359.488 380.924L340.012 320.985L391 283.94H327.976ZM325.245 287.698L308.5 236.164L291.755 287.698H237.568L281.407 319.549L264.662 371.084L308.5 339.233L352.338 371.084L335.594 319.549L379.432 287.698H325.245Z" fill="#D9D9D9"/>
<path d="M308 246L322.636 291.046H370L331.682 318.885L346.318 363.931L308 336.091L269.682 363.931L284.318 318.885L246 291.046H293.364L308 246Z" fill="#D9D9D9"/>
</svg>
